# xmcd
#
# Track frame offsets:
#	150
#	10227
#	23260
#	31637
#	37567
#	46765
#	59890
#	66165
#	77337
#	91297
#	98407
#	114140
#	124732
#	135107
#	141455
#	156655
#	165157
#	179997
#	193267
#	201007
#	211212
#	223762
#	226609
#	232750
#
# Disc length: 3254 seconds
#
# Revision: 1
# Processed by: cddbd v1.5.1PL0 Copyright (c) Steve Scherf et al.
# Submitted via: audiograbber 1.83.01
#
DISCID=2a0cb418
DTITLE=Nico (Antonio) Fagundes - O Fino Do Grosso Nico Fagundes
DYEAR=1900
DGENRE=Causos_Gauchescos
TTITLE0=A Fazendeira e o Chofer
TTITLE1=O Virudú
TTITLE2=Esse Vai Ser Difícil
TTITLE3=Só Unimed
TTITLE4=O Recenseador Da Campanha
TTITLE5=Os Penicos de Coronel Bicaco
TTITLE6=Nome de índio
TTITLE7=O Mensageiro Rural
TTITLE8=O 'Assessor Pugilístico' do Bagre
TTITLE9=O Colégio do Alegrete
TTITLE10=Vinho de Outra Pipa
TTITLE11=O Causo do Gago
TTITLE12=O Doutor Flor e a Mãe do Zeca
TTITLE13=A Cabeça Que Falou
TTITLE14=A Moça Gorda Que Comeu Uma Estância
TTITLE15=Os Peixes do Virapuitã
TTITLE16=O Arroio Churrasqueira
TTITLE17=O Moço do Chifre Grande
TTITLE18=Mais Uma do Mensageiro Rural
TTITLE19=O Coron El Maciel de Santo Antônio da Patrulha
TTITLE20=Os Mais Mentirosos
TTITLE21=O Cordeiro e o Carneiro
TTITLE22=O Fazendeiro e o Cola-fina
TTITLE23=O Velório Dos Três Caixões
EXTD=Causos Gauchescos
EXTT0=
EXTT1=
EXTT2=
EXTT3=
EXTT4=
EXTT5=
EXTT6=
EXTT7=
EXTT8=
EXTT9=
EXTT10=
EXTT11=
EXTT12=
EXTT13=
EXTT14=
EXTT15=
EXTT16=
EXTT17=
EXTT18=
EXTT19=
EXTT20=
EXTT21=
EXTT22=
EXTT23=
PLAYORDER=
